<?xml version="1.0" encoding="utf-8"?>
<!-- Generator: Adobe Illustrator 25.2.3, SVG Export Plug-In . SVG Version: 6.00 Build 0)  -->
<svg version="1.1" id="Layer_1" xmlns="http://www.w3.org/2000/svg" xmlns:xlink="http://www.w3.org/1999/xlink" x="0px" y="0px"
	 viewBox="0 0 159.93 279.78" style="enable-background:new 0 0 159.93 279.78;" xml:space="preserve">
<style type="text/css">
	.st0{fill:none;stroke:#231F20;stroke-width:4;stroke-linecap:round;stroke-linejoin:round;stroke-miterlimit:10;}
	.st1{fill:none;stroke:url(#SVGID_1_);stroke-width:4;stroke-miterlimit:10;}
	.st2{fill:none;stroke:url(#SVGID_2_);stroke-width:4;stroke-linecap:round;stroke-miterlimit:10;}
	.st3{fill:none;stroke:url(#SVGID_3_);stroke-width:4;stroke-linecap:round;stroke-linejoin:round;stroke-miterlimit:10;}
	.st4{fill:none;stroke:url(#SVGID_4_);stroke-width:4;stroke-linecap:round;stroke-linejoin:round;stroke-miterlimit:10;}
	.st5{fill:none;stroke:url(#SVGID_5_);stroke-width:4;stroke-linecap:round;stroke-linejoin:round;stroke-miterlimit:10;}
	.st6{fill:none;stroke:url(#SVGID_6_);stroke-width:4;stroke-miterlimit:10;}
	.st7{fill:none;stroke:url(#SVGID_7_);stroke-width:4;stroke-miterlimit:10;}
	.st8{fill:none;stroke:url(#SVGID_8_);stroke-width:4;stroke-linecap:round;stroke-linejoin:round;stroke-miterlimit:10;}
	.st9{fill:none;stroke:url(#SVGID_9_);stroke-width:4;stroke-miterlimit:10;}
	.st10{fill:none;stroke:url(#SVGID_10_);stroke-width:4;stroke-linecap:round;stroke-linejoin:round;stroke-miterlimit:10;}
	.st11{fill:none;}
	.st12{fill:url(#SVGID_11_);}
</style>
<g>
	<g>
		<path class="st0" d="M-11.24,43.58"/>
		<path class="st0" d="M-11.24,38.65"/>
		
			<linearGradient id="SVGID_1_" gradientUnits="userSpaceOnUse" x1="79.5032" y1="301.8011" x2="105.1441" y2="301.8011" gradientTransform="matrix(1.0571 0.0444 -0.0488 -1.038 12.9178 349.9813)">
			<stop  offset="0.095" style="stop-color:#FAC826"/>
			<stop  offset="0.3998" style="stop-color:#C5942D"/>
			<stop  offset="0.6516" style="stop-color:#C2912E"/>
			<stop  offset="0.9841" style="stop-color:#E9CF80"/>
			<stop  offset="1" style="stop-color:#EDD688"/>
		</linearGradient>
		<line class="st1" x1="83.11" y1="30.49" x2="108.46" y2="51.14"/>
		
			<linearGradient id="SVGID_2_" gradientUnits="userSpaceOnUse" x1="84.4369" y1="270.4373" x2="111.0142" y2="270.4373" gradientTransform="matrix(0.9878 0.0364 -5.104593e-03 -0.9642 1.6574 328.4794)">
			<stop  offset="0.095" style="stop-color:#FAC826"/>
			<stop  offset="0.3998" style="stop-color:#C5942D"/>
			<stop  offset="0.6516" style="stop-color:#C2912E"/>
			<stop  offset="0.9841" style="stop-color:#E9CF80"/>
			<stop  offset="1" style="stop-color:#EDD688"/>
		</linearGradient>
		<line class="st2" x1="85.76" y1="89.94" x2="107.86" y2="52.63"/>
		<g>
			
				<linearGradient id="SVGID_3_" gradientUnits="userSpaceOnUse" x1="53.9402" y1="285.791" x2="74.4002" y2="285.791" gradientTransform="matrix(1 0 0 -1 0 339.9319)">
				<stop  offset="0.095" style="stop-color:#FAC826"/>
				<stop  offset="0.3998" style="stop-color:#C5942D"/>
				<stop  offset="0.6516" style="stop-color:#C2912E"/>
				<stop  offset="0.9841" style="stop-color:#E9CF80"/>
				<stop  offset="1" style="stop-color:#EDD688"/>
			</linearGradient>
			<line class="st3" x1="55.94" y1="46.8" x2="72.4" y2="61.49"/>
			
				<linearGradient id="SVGID_4_" gradientUnits="userSpaceOnUse" x1="53.7802" y1="262.706" x2="74.2502" y2="262.706" gradientTransform="matrix(1 0 0 -1 0 339.9319)">
				<stop  offset="0.095" style="stop-color:#FAC826"/>
				<stop  offset="0.3998" style="stop-color:#C5942D"/>
				<stop  offset="0.6516" style="stop-color:#C2912E"/>
				<stop  offset="0.9841" style="stop-color:#E9CF80"/>
				<stop  offset="1" style="stop-color:#EDD688"/>
			</linearGradient>
			<line class="st4" x1="55.78" y1="92.9" x2="72.25" y2="61.56"/>
		</g>
		
			<linearGradient id="SVGID_5_" gradientUnits="userSpaceOnUse" x1="28.0939" y1="269.1725" x2="42.3857" y2="269.1725" gradientTransform="matrix(0.9879 -0.0142 0.0132 -0.9845 -5.0613 334.0017)">
			<stop  offset="0.095" style="stop-color:#FAC826"/>
			<stop  offset="0.3998" style="stop-color:#C5942D"/>
			<stop  offset="0.6516" style="stop-color:#C2912E"/>
			<stop  offset="0.9841" style="stop-color:#E9CF80"/>
			<stop  offset="1" style="stop-color:#EDD688"/>
		</linearGradient>
		<line class="st5" x1="28.29" y1="63.46" x2="38.32" y2="73.55"/>
		
			<linearGradient id="SVGID_6_" gradientUnits="userSpaceOnUse" x1="25.3326" y1="253.406" x2="40.1579" y2="253.406" gradientTransform="matrix(1 0 0 -1 0 339.9319)">
			<stop  offset="0.095" style="stop-color:#FAC826"/>
			<stop  offset="0.3998" style="stop-color:#C5942D"/>
			<stop  offset="0.6516" style="stop-color:#C2912E"/>
			<stop  offset="0.9841" style="stop-color:#E9CF80"/>
			<stop  offset="1" style="stop-color:#EDD688"/>
		</linearGradient>
		<line class="st6" x1="27.17" y1="99.51" x2="38.32" y2="73.55"/>
		
			<linearGradient id="SVGID_7_" gradientUnits="userSpaceOnUse" x1="8.8602" y1="196.6668" x2="118.7402" y2="196.6668" gradientTransform="matrix(1 0 0 -1 0 339.9319)">
			<stop  offset="0.095" style="stop-color:#FAC826"/>
			<stop  offset="0.3998" style="stop-color:#C5942D"/>
			<stop  offset="0.6516" style="stop-color:#C2912E"/>
			<stop  offset="0.9841" style="stop-color:#E9CF80"/>
			<stop  offset="1" style="stop-color:#EDD688"/>
		</linearGradient>
		<path class="st7" d="M113.5,271.49L10.86,211.16V71.44l102.73-56.41c1.42-0.77,3.15,0.26,3.15,1.86l-0.26,252.92
			C116.48,271.32,114.82,272.27,113.5,271.49z"/>
		
			<linearGradient id="SVGID_8_" gradientUnits="userSpaceOnUse" x1="8.3602" y1="196.771" x2="118.5502" y2="196.771" gradientTransform="matrix(1 0 0 -1 0 339.9319)">
			<stop  offset="0.095" style="stop-color:#FAC826"/>
			<stop  offset="0.3998" style="stop-color:#C5942D"/>
			<stop  offset="0.6516" style="stop-color:#C2912E"/>
			<stop  offset="0.9841" style="stop-color:#E9CF80"/>
			<stop  offset="1" style="stop-color:#EDD688"/>
		</linearGradient>
		<path class="st8" d="M116.55,273.72l-104.8-61.17c-0.86-0.5-1.39-1.42-1.39-2.41V71.22c0-1.03,0.57-1.98,1.47-2.46l104.71-56.15
			v261.11H116.55z"/>
		
			<linearGradient id="SVGID_9_" gradientUnits="userSpaceOnUse" x1="11.6591" y1="246.076" x2="116.8013" y2="246.076" gradientTransform="matrix(1 0 0 -1 0 339.9319)">
			<stop  offset="0.095" style="stop-color:#FAC826"/>
			<stop  offset="0.3998" style="stop-color:#C5942D"/>
			<stop  offset="0.6516" style="stop-color:#C2912E"/>
			<stop  offset="0.9841" style="stop-color:#E9CF80"/>
			<stop  offset="1" style="stop-color:#EDD688"/>
		</linearGradient>
		<line class="st9" x1="11.96" y1="101.82" x2="116.5" y2="85.9"/>
		<g>
			
				<linearGradient id="SVGID_10_" gradientUnits="userSpaceOnUse" x1="114.2602" y1="197.191" x2="151.7502" y2="197.191" gradientTransform="matrix(1 0 0 -1 0 339.9319)">
				<stop  offset="0.1491" style="stop-color:#C0A02B"/>
				<stop  offset="0.6516" style="stop-color:#C2912E"/>
				<stop  offset="0.9841" style="stop-color:#E9CF80"/>
				<stop  offset="1" style="stop-color:#FAC826"/>
				<stop  offset="1" style="stop-color:#EDD688"/>
			</linearGradient>
			<polygon class="st10" points="149.75,233.99 116.84,272.8 116.26,12.69 148.73,50.13 			"/>
			<polygon class="st11" points="153.66,103.04 116.62,86.4 116.26,13.48 153.34,55.01 			"/>
		</g>
	</g>
	
		<linearGradient id="SVGID_11_" gradientUnits="userSpaceOnUse" x1="30.1062" y1="169.4961" x2="106.0837" y2="169.4961" gradientTransform="matrix(0.9951 -0.0992 -0.0992 -0.9951 15.9874 339.6954)">
		<stop  offset="5.618000e-03" style="stop-color:#FAC826"/>
		<stop  offset="0.2009" style="stop-color:#C2912E"/>
		<stop  offset="0.8708" style="stop-color:#EDD688"/>
		<stop  offset="1" style="stop-color:#FFFACB"/>
	</linearGradient>
	<path class="st12" d="M99.31,106.07l-7.75,25.85c0,0-7.69-1.26-10.08-1.21c-2.39,0.05-6.37-1.02-13.18,0.94
		c-4.72,1.37-5.01,7.16-4.75,10.59c0.14,1.82,0.8,3.55,1.92,4.99c2.75,3.52,6.48,4.89,8.82,5.76c3.81,1.42,9,4.06,14.86,9.45
		c0.91,1.15,2.05,2.72,3.23,4.68c0.75,1.25,2.65,4.56,4.14,9.11c1.12,3.42,4.04,12.39,1.49,23.19c-1.32,5.61-2.75,11.26-14.37,18.69
		s-22.49,4.8-22.49,4.8s-10.26-1.19-16.52-4.81c-6.26-3.62-11.31-8.04-11.31-8.04l0.56-1.77l5.28-17.31c0,0,6.33,4.35,13.51,6.03
		s12.44-1.05,12.44-1.05c0.73-0.46,1.58-1.15,2.31-2.14c0.47-0.64,1.24-1.7,1.4-3.2c0.07-0.7-0.04-1.32-0.27-2.56
		c-0.04-0.22-0.22-1.21-0.64-2.47c-0.26-0.79-0.4-1.23-0.69-1.76c-0.36-0.68-0.79-1.22-1.39-1.83c-1.56-1.61-3.51-2.99-4.32-3.55
		c0,0-7.7-5.13-10.95-8.13c0,0-5.06-4.48-7.83-10.1s-3.57-19.19-3.57-19.19s-0.87-8.31,3.03-16.37c3.73-7.7,8.8-12.5,16.19-16
		c2.91-1.38,4.74-2.19,6.68-2.73c4.07-1.12,7.88-1.64,14.28-1.56C84.44,104.41,91.23,104.79,99.31,106.07z"/>
</g>
</svg>
