<?xml version="1.0" encoding="utf-8"?>
<!-- Generator: Adobe Illustrator 25.2.3, SVG Export Plug-In . SVG Version: 6.00 Build 0)  -->
<svg version="1.1" id="Layer_1" xmlns="http://www.w3.org/2000/svg" xmlns:xlink="http://www.w3.org/1999/xlink" x="0px" y="0px"
	 viewBox="0 0 530.76 160.51" style="enable-background:new 0 0 530.76 160.51;" xml:space="preserve">
<style type="text/css">
	.st0{fill:none;stroke:#000000;stroke-width:4;stroke-linecap:round;stroke-linejoin:round;stroke-miterlimit:10;}
	.st1{fill:none;stroke:url(#SVGID_1_);stroke-width:4;stroke-miterlimit:10;}
	.st2{fill:none;stroke:url(#SVGID_2_);stroke-width:4;stroke-linecap:round;stroke-miterlimit:10;}
	.st3{fill:none;stroke:url(#SVGID_3_);stroke-width:4;stroke-linecap:round;stroke-linejoin:round;stroke-miterlimit:10;}
	.st4{fill:none;stroke:url(#SVGID_4_);stroke-width:4;stroke-linecap:round;stroke-linejoin:round;stroke-miterlimit:10;}
	.st5{fill:none;stroke:url(#SVGID_5_);stroke-width:4;stroke-linecap:round;stroke-linejoin:round;stroke-miterlimit:10;}
	.st6{fill:none;stroke:url(#SVGID_6_);stroke-width:4;stroke-miterlimit:10;}
	.st7{fill:none;stroke:url(#SVGID_7_);stroke-width:4;stroke-miterlimit:10;}
	.st8{fill:none;stroke:url(#SVGID_8_);stroke-width:4;stroke-linecap:round;stroke-linejoin:round;stroke-miterlimit:10;}
	.st9{fill:none;stroke:url(#SVGID_9_);stroke-width:4;stroke-miterlimit:10;}
	.st10{fill:none;stroke:url(#SVGID_10_);stroke-width:4;stroke-linecap:round;stroke-linejoin:round;stroke-miterlimit:10;}
	.st11{fill:none;}
	.st12{fill:url(#SVGID_11_);}
	.st13{fill:#6D6E71;}
	.st14{fill:none;stroke:url(#SVGID_12_);stroke-width:4;stroke-miterlimit:10;}
	.st15{fill:none;stroke:url(#SVGID_13_);stroke-width:4;stroke-linecap:round;stroke-miterlimit:10;}
	.st16{fill:none;stroke:url(#SVGID_14_);stroke-width:4;stroke-linecap:round;stroke-linejoin:round;stroke-miterlimit:10;}
	.st17{fill:none;stroke:url(#SVGID_15_);stroke-width:4;stroke-linecap:round;stroke-linejoin:round;stroke-miterlimit:10;}
	.st18{fill:none;stroke:url(#SVGID_16_);stroke-width:4;stroke-linecap:round;stroke-linejoin:round;stroke-miterlimit:10;}
	.st19{fill:none;stroke:url(#SVGID_17_);stroke-width:4;stroke-miterlimit:10;}
	.st20{fill:none;stroke:url(#SVGID_18_);stroke-width:4;stroke-miterlimit:10;}
	.st21{fill:none;stroke:url(#SVGID_19_);stroke-width:4;stroke-linecap:round;stroke-linejoin:round;stroke-miterlimit:10;}
	.st22{fill:none;stroke:url(#SVGID_20_);stroke-width:4;stroke-miterlimit:10;}
	.st23{fill:none;stroke:url(#SVGID_21_);stroke-width:4;stroke-linecap:round;stroke-linejoin:round;stroke-miterlimit:10;}
	.st24{fill:url(#SVGID_22_);}
</style>
<g>
	<g>
		<path class="st0" d="M-8.02,22.68"/>
		<path class="st0" d="M-8.02,19.82"/>
		
			<linearGradient id="SVGID_1_" gradientUnits="userSpaceOnUse" x1="61.5346" y1="33.0523" x2="77.4869" y2="33.0523" gradientTransform="matrix(1.0571 0.0444 0.0488 1.038 -20.9627 -16.3185)">
			<stop  offset="0.095" style="stop-color:#FBC926"/>
			<stop  offset="0.3998" style="stop-color:#C5952D"/>
			<stop  offset="0.6516" style="stop-color:#C3922E"/>
			<stop  offset="0.9368" style="stop-color:#E2C675"/>
			<stop  offset="0.9841" style="stop-color:#E9D081"/>
			<stop  offset="1" style="stop-color:#EED688"/>
		</linearGradient>
		<line class="st1" x1="46.77" y1="15.08" x2="61.49" y2="27.07"/>
		
			<linearGradient id="SVGID_2_" gradientUnits="userSpaceOnUse" x1="45.531" y1="37.6322" x2="62.6472" y2="37.6322" gradientTransform="matrix(0.9878 0.0364 5.104593e-03 0.9642 1.1036 0.5204)">
			<stop  offset="0.095" style="stop-color:#FBC926"/>
			<stop  offset="0.3998" style="stop-color:#C5952D"/>
			<stop  offset="0.6516" style="stop-color:#C3922E"/>
			<stop  offset="0.9368" style="stop-color:#E2C675"/>
			<stop  offset="0.9841" style="stop-color:#E9D081"/>
			<stop  offset="1" style="stop-color:#EED688"/>
		</linearGradient>
		<line class="st2" x1="48.31" y1="49.61" x2="61.14" y2="27.94"/>
		<g>
			<linearGradient id="SVGID_3_" gradientUnits="userSpaceOnUse" x1="28.9931" y1="28.8217" x2="42.5491" y2="28.8217">
				<stop  offset="0.095" style="stop-color:#FBC926"/>
				<stop  offset="0.3998" style="stop-color:#C5952D"/>
				<stop  offset="0.6516" style="stop-color:#C3922E"/>
				<stop  offset="0.9368" style="stop-color:#E2C675"/>
				<stop  offset="0.9841" style="stop-color:#E9D081"/>
				<stop  offset="1" style="stop-color:#EED688"/>
			</linearGradient>
			<line class="st3" x1="30.99" y1="24.56" x2="40.55" y2="33.09"/>
			<linearGradient id="SVGID_4_" gradientUnits="userSpaceOnUse" x1="28.8988" y1="42.2282" x2="42.462" y2="42.2282">
				<stop  offset="0.095" style="stop-color:#FBC926"/>
				<stop  offset="0.3998" style="stop-color:#C5952D"/>
				<stop  offset="0.6516" style="stop-color:#C3922E"/>
				<stop  offset="0.9368" style="stop-color:#E2C675"/>
				<stop  offset="0.9841" style="stop-color:#E9D081"/>
				<stop  offset="1" style="stop-color:#EED688"/>
			</linearGradient>
			<line class="st4" x1="30.9" y1="51.33" x2="40.46" y2="33.13"/>
		</g>
		
			<linearGradient id="SVGID_5_" gradientUnits="userSpaceOnUse" x1="9.9288" y1="33.7189" x2="19.9062" y2="33.7189" gradientTransform="matrix(0.9879 -0.0142 -0.0132 0.9845 3.5525 4.1796)">
			<stop  offset="0.095" style="stop-color:#FBC926"/>
			<stop  offset="0.3998" style="stop-color:#C5952D"/>
			<stop  offset="0.6516" style="stop-color:#C3922E"/>
			<stop  offset="0.9368" style="stop-color:#E2C675"/>
			<stop  offset="0.9841" style="stop-color:#E9D081"/>
			<stop  offset="1" style="stop-color:#EED688"/>
		</linearGradient>
		<line class="st5" x1="14.93" y1="34.23" x2="20.76" y2="40.09"/>
		<linearGradient id="SVGID_6_" gradientUnits="userSpaceOnUse" x1="12.4446" y1="47.6284" x2="22.5949" y2="47.6284">
			<stop  offset="0.095" style="stop-color:#FBC926"/>
			<stop  offset="0.3998" style="stop-color:#C5952D"/>
			<stop  offset="0.6516" style="stop-color:#C3922E"/>
			<stop  offset="0.9368" style="stop-color:#E2C675"/>
			<stop  offset="0.9841" style="stop-color:#E9D081"/>
			<stop  offset="1" style="stop-color:#EED688"/>
		</linearGradient>
		<line class="st6" x1="14.28" y1="55.17" x2="20.76" y2="40.09"/>
		<linearGradient id="SVGID_7_" gradientUnits="userSpaceOnUse" x1="2.8149" y1="80.5752" x2="68.2997" y2="80.5752">
			<stop  offset="0.095" style="stop-color:#FBC926"/>
			<stop  offset="0.3998" style="stop-color:#C5952D"/>
			<stop  offset="0.6516" style="stop-color:#C3922E"/>
			<stop  offset="0.9368" style="stop-color:#E2C675"/>
			<stop  offset="0.9841" style="stop-color:#E9D081"/>
			<stop  offset="1" style="stop-color:#EED688"/>
		</linearGradient>
		<path class="st7" d="M64.42,155.04L4.81,120V38.86L64.47,6.1c0.83-0.45,1.83,0.15,1.83,1.08l-0.15,146.87
			C66.15,154.94,65.18,155.49,64.42,155.04z"/>
		<linearGradient id="SVGID_8_" gradientUnits="userSpaceOnUse" x1="2.5221" y1="80.516" x2="68.1856" y2="80.516">
			<stop  offset="0.095" style="stop-color:#FBC926"/>
			<stop  offset="0.3998" style="stop-color:#C5952D"/>
			<stop  offset="0.6516" style="stop-color:#C3922E"/>
			<stop  offset="0.9368" style="stop-color:#E2C675"/>
			<stop  offset="0.9841" style="stop-color:#E9D081"/>
			<stop  offset="1" style="stop-color:#EED688"/>
		</linearGradient>
		<path class="st8" d="M66.19,156.33L5.33,120.81c-0.5-0.29-0.8-0.82-0.8-1.4V38.74c0-0.6,0.33-1.15,0.86-1.43L66.19,4.7V156.33z"/>
		<linearGradient id="SVGID_9_" gradientUnits="userSpaceOnUse" x1="5.1515" y1="51.8859" x2="66.4603" y2="51.8859">
			<stop  offset="0.095" style="stop-color:#FBC926"/>
			<stop  offset="0.3998" style="stop-color:#C5952D"/>
			<stop  offset="0.6516" style="stop-color:#C3922E"/>
			<stop  offset="0.9368" style="stop-color:#E2C675"/>
			<stop  offset="0.9841" style="stop-color:#E9D081"/>
			<stop  offset="1" style="stop-color:#EED688"/>
		</linearGradient>
		<line class="st9" x1="5.45" y1="56.51" x2="66.16" y2="47.26"/>
		<g>
			<linearGradient id="SVGID_10_" gradientUnits="userSpaceOnUse" x1="64.0181" y1="80.2752" x2="87.4657" y2="80.2752">
				<stop  offset="0.1491" style="stop-color:#C0A02B"/>
				<stop  offset="0.6516" style="stop-color:#C3922E"/>
				<stop  offset="0.9368" style="stop-color:#E2C675"/>
				<stop  offset="0.9841" style="stop-color:#E9D081"/>
				<stop  offset="1" style="stop-color:#FBC926"/>
				<stop  offset="1" style="stop-color:#EED688"/>
			</linearGradient>
			<polygon class="st10" points="85.47,133.26 66.36,155.8 66.02,4.75 84.87,26.49 			"/>
			<polygon class="st11" points="87.74,57.21 66.23,47.55 66.02,5.21 87.55,29.32 			"/>
		</g>
	</g>
	
		<linearGradient id="SVGID_11_" gradientUnits="userSpaceOnUse" x1="40.5925" y1="80.8403" x2="84.7101" y2="80.8403" gradientTransform="matrix(0.9951 -0.0992 0.0992 0.9951 -32.9816 18.5443)">
		<stop  offset="5.618000e-03" style="stop-color:#FBC926"/>
		<stop  offset="0.2009" style="stop-color:#C3922E"/>
		<stop  offset="0.7333" style="stop-color:#E2C675"/>
		<stop  offset="0.8708" style="stop-color:#EED688"/>
		<stop  offset="1" style="stop-color:#FFFBCC"/>
	</linearGradient>
	<path class="st12" d="M56.18,58.97l-4.5,15.01c0,0-4.46-0.73-5.85-0.7c-1.39,0.03-3.7-0.6-7.66,0.55
		c-2.74,0.79-2.91,4.16-2.76,6.15c0.08,1.06,0.46,2.06,1.12,2.9c1.6,2.04,3.76,2.84,5.12,3.35c2.21,0.82,5.23,2.36,8.63,5.49
		c0.53,0.67,1.19,1.58,1.87,2.72c0.43,0.73,1.54,2.65,2.41,5.29c0.65,1.98,2.34,7.19,0.87,13.46c-0.77,3.26-1.6,6.54-8.34,10.85
		c-6.75,4.31-13.06,2.79-13.06,2.79s-5.96-0.69-9.6-2.79c-3.64-2.1-6.57-4.67-6.57-4.67l0.33-1.03l3.07-10.05
		c0,0,3.68,2.52,7.85,3.5c4.17,0.98,7.22-0.61,7.22-0.61c0.43-0.27,0.92-0.67,1.34-1.25c0.27-0.37,0.72-0.98,0.81-1.86
		c0.04-0.41-0.02-0.77-0.15-1.49c-0.02-0.13-0.13-0.7-0.37-1.44c-0.15-0.46-0.23-0.71-0.4-1.02c-0.21-0.4-0.46-0.71-0.81-1.06
		c-0.91-0.93-2.04-1.74-2.51-2.06c0,0-4.47-2.98-6.36-4.72c0,0-2.94-2.6-4.55-5.87c-1.61-3.27-2.07-11.15-2.07-11.15
		s-0.51-4.82,1.76-9.51c2.17-4.47,5.11-7.26,9.4-9.29c1.69-0.8,2.75-1.27,3.88-1.58c2.36-0.65,4.57-0.95,8.29-0.91
		C47.54,58.01,51.49,58.23,56.18,58.97z"/>
</g>
<g>
	<path class="st13" d="M98.29,112.93c2.84,2.47,8.01,5.28,13.15,5.73c7.48,0.66,11.36-3.18,11.83-8.37
		c0.49-5.45-2.16-8.69-9.48-12.47c-9.81-4.92-14.04-11.57-13.36-19.09c0.91-10.12,9.02-17.77,21.18-16.7
		c5.73,0.5,10.59,2.76,13.56,5.12l-3.32,8.08c-2.08-1.75-5.99-4.19-11.25-4.65c-6.08-0.54-9.82,3.06-10.24,7.73
		c-0.47,5.19,2.71,7.82,9.8,11.58c9.45,5.02,13.98,10.91,13.14,20.25c-0.99,11.03-9.41,18.13-22.85,16.95
		c-6.2-0.54-11.77-2.74-15.51-5.68L98.29,112.93z"/>
	<path class="st13" d="M152.86,31.83l10.29,0.91l-3.53,39.18l0.23,0.02c1.93-3.1,4.76-5.73,8.09-7.4c3.21-1.68,6.96-2.66,10.81-2.32
		c7.6,0.67,19.29,6.93,17.34,28.6l-3.37,37.36l-10.29-0.91l3.25-36.07c0.91-10.12-1.71-18.98-11.41-19.83
		c-6.66-0.59-12.39,4.14-14.82,10.2c-0.73,1.5-0.99,3.18-1.19,5.39l-3.41,37.88l-10.29-0.91L152.86,31.83z"/>
	<path class="st13" d="M263.14,96.6c-2.09,23.22-17.5,32.07-31.18,30.86c-15.31-1.35-26-14.84-24.21-34.69
		c1.89-21.02,15.4-32.25,31.06-30.87C255.07,63.33,264.87,77.4,263.14,96.6z M218.2,93.3c-1.24,13.75,4.96,24.76,15.01,25.64
		c9.82,0.86,18.11-8.74,19.38-22.88c0.96-10.64-2.62-24.55-14.78-25.62C225.65,69.37,219.27,81.36,218.2,93.3z"/>
	<path class="st13" d="M276.68,81.65c0.72-8.04,1.08-14.55,1.38-20.54l9.23,0.81l-0.5,10.81l0.23,0.02
		c4.9-7.28,11.97-11.24,21.21-10.43c13.68,1.2,22.81,14.95,21.09,34.03c-2.03,22.57-15.43,32.64-28.76,31.47
		c-7.48-0.66-13.7-4.87-16.53-11.39l-0.23-0.02l-3.07,34.12l-10.17-0.9L276.68,81.65z M285.35,99.28c-0.15,1.69-0.06,3.26,0.05,4.71
		c1.16,8.08,6.86,14.07,14.23,14.72c10.87,0.96,18.07-8.35,19.37-22.75c1.13-12.58-3.86-23.88-14.73-24.83
		c-7.01-0.62-14.06,4.38-16.82,12.77c-0.48,1.4-0.98,3.05-1.12,4.61L285.35,99.28z"/>
	<path class="st13" d="M342.82,81.68c0.72-8.04,1.08-14.55,1.38-20.54l9.23,0.81l-0.5,10.81l0.23,0.02
		c4.9-7.28,11.97-11.24,21.21-10.43c13.68,1.2,22.81,14.95,21.09,34.02c-2.03,22.57-15.43,32.64-28.76,31.47
		c-7.48-0.66-13.7-4.87-16.53-11.39l-0.23-0.02l-3.07,34.12l-10.17-0.9L342.82,81.68z M351.49,99.32c-0.15,1.69-0.06,3.26,0.05,4.71
		c1.16,8.08,6.86,14.07,14.23,14.72c10.87,0.96,18.07-8.35,19.37-22.75c1.13-12.58-3.86-23.88-14.73-24.83
		c-7.01-0.62-14.06,4.39-16.82,12.77c-0.48,1.4-0.98,3.05-1.12,4.61L351.49,99.32z"/>
	<path class="st13" d="M405.15,125.73l5.66-62.79l10.29,0.91l-5.66,62.79L405.15,125.73z M423.86,46.3
		c-0.23,3.9-3.09,6.79-7.18,6.43c-3.62-0.32-5.92-3.66-5.56-7.55c0.36-4.02,3.33-6.9,7.07-6.57
		C422.04,38.95,424.22,42.28,423.86,46.3z"/>
	<path class="st13" d="M440.5,95.56c-1.16,15.46,7.16,22.6,17.44,23.5c7.37,0.65,11.94-0.39,15.96-1.86l1.02,8.33
		c-3.79,1.5-10.17,3.03-19.17,2.24c-17.42-1.53-26.68-15.16-24.97-34.11s13.1-32.98,29.59-31.53c18.47,1.63,21.76,20.09,20.72,31.64
		c-0.21,2.34-0.61,4.13-0.83,5.29L440.5,95.56z M471.4,90.05c0.77-7.26-1.02-18.79-12.59-19.81c-10.4-0.92-15.92,9.32-17.45,17.16
		L471.4,90.05z"/>
	<path class="st13" d="M489.97,113.15c2.84,2.47,8.01,5.28,13.15,5.73c7.48,0.66,11.36-3.18,11.83-8.37
		c0.49-5.45-2.16-8.69-9.48-12.47c-9.81-4.92-14.04-11.57-13.36-19.09c0.91-10.12,9.02-17.77,21.18-16.7
		c5.73,0.5,10.59,2.76,13.56,5.12l-3.32,8.08c-2.08-1.75-5.99-4.19-11.25-4.65c-6.08-0.54-9.82,3.06-10.24,7.73
		c-0.47,5.19,2.71,7.82,9.8,11.58c9.44,5.02,13.98,10.91,13.14,20.25c-0.99,11.03-9.41,18.13-22.85,16.95
		c-6.2-0.54-11.77-2.74-15.51-5.68L489.97,113.15z"/>
</g>
<g>
	<path class="st13" d="M102.26,34.08h-6.4v-2.31h15.58v2.31h-6.43v18.73h-2.75V34.08z"/>
	<path class="st13" d="M113.47,30.65h2.75v9.43h0.06c0.44-0.78,1.12-1.47,1.97-1.94c0.81-0.47,1.78-0.78,2.81-0.78
		c2.03,0,5.28,1.25,5.28,6.46v8.99h-2.75v-8.68c0-2.44-0.91-4.5-3.5-4.5c-1.78,0-3.18,1.25-3.68,2.75
		c-0.16,0.37-0.19,0.78-0.19,1.31v9.12h-2.75V30.65z"/>
	<path class="st13" d="M132.33,45.76c0.06,3.72,2.44,5.25,5.18,5.25c1.97,0,3.15-0.34,4.18-0.78l0.47,1.97
		c-0.97,0.44-2.62,0.94-5.03,0.94c-4.65,0-7.43-3.06-7.43-7.62c0-4.56,2.68-8.15,7.09-8.15c4.93,0,6.24,4.34,6.24,7.12
		c0,0.56-0.06,1-0.09,1.28H132.33z M140.39,43.79c0.03-1.75-0.72-4.46-3.81-4.46c-2.78,0-4,2.56-4.21,4.46H140.39z"/>
</g>
<g>
	<g>
		<path class="st0" d="M67.16,474.16"/>
		<path class="st0" d="M67.16,471.3"/>
		
			<linearGradient id="SVGID_12_" gradientUnits="userSpaceOnUse" x1="112.6809" y1="465.7977" x2="128.6332" y2="465.7977" gradientTransform="matrix(1.0571 0.0444 0.0488 1.038 -20.9627 -16.3185)">
			<stop  offset="0.095" style="stop-color:#FBC926"/>
			<stop  offset="0.3998" style="stop-color:#C5952D"/>
			<stop  offset="0.6516" style="stop-color:#C3922E"/>
			<stop  offset="0.9368" style="stop-color:#E2C675"/>
			<stop  offset="0.9841" style="stop-color:#E9D081"/>
			<stop  offset="1" style="stop-color:#EED688"/>
		</linearGradient>
		<line class="st14" x1="121.95" y1="466.56" x2="136.67" y2="478.55"/>
		
			<linearGradient id="SVGID_13_" gradientUnits="userSpaceOnUse" x1="119.2332" y1="503.0891" x2="136.3495" y2="503.0891" gradientTransform="matrix(0.9878 0.0364 5.104593e-03 0.9642 1.1036 0.5204)">
			<stop  offset="0.095" style="stop-color:#FBC926"/>
			<stop  offset="0.3998" style="stop-color:#C5952D"/>
			<stop  offset="0.6516" style="stop-color:#C3922E"/>
			<stop  offset="0.9368" style="stop-color:#E2C675"/>
			<stop  offset="0.9841" style="stop-color:#E9D081"/>
			<stop  offset="1" style="stop-color:#EED688"/>
		</linearGradient>
		<line class="st15" x1="123.48" y1="501.08" x2="136.32" y2="479.42"/>
		<g>
			<linearGradient id="SVGID_14_" gradientUnits="userSpaceOnUse" x1="104.172" y1="480.2995" x2="117.728" y2="480.2995">
				<stop  offset="0.095" style="stop-color:#FBC926"/>
				<stop  offset="0.3998" style="stop-color:#C5952D"/>
				<stop  offset="0.6516" style="stop-color:#C3922E"/>
				<stop  offset="0.9368" style="stop-color:#E2C675"/>
				<stop  offset="0.9841" style="stop-color:#E9D081"/>
				<stop  offset="1" style="stop-color:#EED688"/>
			</linearGradient>
			<line class="st16" x1="106.17" y1="476.03" x2="115.73" y2="484.57"/>
			<linearGradient id="SVGID_15_" gradientUnits="userSpaceOnUse" x1="104.0777" y1="493.706" x2="117.6409" y2="493.706">
				<stop  offset="0.095" style="stop-color:#FBC926"/>
				<stop  offset="0.3998" style="stop-color:#C5952D"/>
				<stop  offset="0.6516" style="stop-color:#C3922E"/>
				<stop  offset="0.9368" style="stop-color:#E2C675"/>
				<stop  offset="0.9841" style="stop-color:#E9D081"/>
				<stop  offset="1" style="stop-color:#EED688"/>
			</linearGradient>
			<line class="st17" x1="106.08" y1="502.81" x2="115.64" y2="484.6"/>
		</g>
		
			<linearGradient id="SVGID_16_" gradientUnits="userSpaceOnUse" x1="92.1672" y1="493.5057" x2="102.1445" y2="493.5057" gradientTransform="matrix(0.9879 -0.0142 -0.0132 0.9845 3.5525 4.1796)">
			<stop  offset="0.095" style="stop-color:#FBC926"/>
			<stop  offset="0.3998" style="stop-color:#C5952D"/>
			<stop  offset="0.6516" style="stop-color:#C3922E"/>
			<stop  offset="0.9368" style="stop-color:#E2C675"/>
			<stop  offset="0.9841" style="stop-color:#E9D081"/>
			<stop  offset="1" style="stop-color:#EED688"/>
		</linearGradient>
		<line class="st18" x1="90.11" y1="485.71" x2="95.94" y2="491.57"/>
		<linearGradient id="SVGID_17_" gradientUnits="userSpaceOnUse" x1="87.6235" y1="499.1062" x2="97.7738" y2="499.1062">
			<stop  offset="0.095" style="stop-color:#FBC926"/>
			<stop  offset="0.3998" style="stop-color:#C5952D"/>
			<stop  offset="0.6516" style="stop-color:#C3922E"/>
			<stop  offset="0.9368" style="stop-color:#E2C675"/>
			<stop  offset="0.9841" style="stop-color:#E9D081"/>
			<stop  offset="1" style="stop-color:#EED688"/>
		</linearGradient>
		<line class="st19" x1="89.46" y1="506.64" x2="95.94" y2="491.57"/>
		<linearGradient id="SVGID_18_" gradientUnits="userSpaceOnUse" x1="77.9938" y1="532.053" x2="143.4786" y2="532.053">
			<stop  offset="0.095" style="stop-color:#FBC926"/>
			<stop  offset="0.3998" style="stop-color:#C5952D"/>
			<stop  offset="0.6516" style="stop-color:#C3922E"/>
			<stop  offset="0.9368" style="stop-color:#E2C675"/>
			<stop  offset="0.9841" style="stop-color:#E9D081"/>
			<stop  offset="1" style="stop-color:#EED688"/>
		</linearGradient>
		<path class="st20" d="M139.6,606.52l-59.6-35.04v-81.14l59.65-32.76c0.83-0.45,1.83,0.15,1.83,1.08l-0.15,146.87
			C141.33,606.42,140.36,606.97,139.6,606.52z"/>
		<linearGradient id="SVGID_19_" gradientUnits="userSpaceOnUse" x1="77.701" y1="531.9938" x2="143.3645" y2="531.9938">
			<stop  offset="0.095" style="stop-color:#FBC926"/>
			<stop  offset="0.3998" style="stop-color:#C5952D"/>
			<stop  offset="0.6516" style="stop-color:#C3922E"/>
			<stop  offset="0.9368" style="stop-color:#E2C675"/>
			<stop  offset="0.9841" style="stop-color:#E9D081"/>
			<stop  offset="1" style="stop-color:#EED688"/>
		</linearGradient>
		<path class="st21" d="M141.36,607.81l-60.86-35.52c-0.5-0.29-0.8-0.82-0.8-1.4v-80.67c0-0.6,0.33-1.15,0.86-1.43l60.81-32.61
			V607.81z"/>
		<linearGradient id="SVGID_20_" gradientUnits="userSpaceOnUse" x1="80.3304" y1="503.3637" x2="141.6391" y2="503.3637">
			<stop  offset="0.095" style="stop-color:#FBC926"/>
			<stop  offset="0.3998" style="stop-color:#C5952D"/>
			<stop  offset="0.6516" style="stop-color:#C3922E"/>
			<stop  offset="0.9368" style="stop-color:#E2C675"/>
			<stop  offset="0.9841" style="stop-color:#E9D081"/>
			<stop  offset="1" style="stop-color:#EED688"/>
		</linearGradient>
		<line class="st22" x1="80.63" y1="507.99" x2="141.34" y2="498.74"/>
		<g>
			<linearGradient id="SVGID_21_" gradientUnits="userSpaceOnUse" x1="139.197" y1="531.753" x2="162.6446" y2="531.753">
				<stop  offset="0.1491" style="stop-color:#C0A02B"/>
				<stop  offset="0.6516" style="stop-color:#C3922E"/>
				<stop  offset="0.9368" style="stop-color:#E2C675"/>
				<stop  offset="0.9841" style="stop-color:#E9D081"/>
				<stop  offset="1" style="stop-color:#FBC926"/>
				<stop  offset="1" style="stop-color:#EED688"/>
			</linearGradient>
			<polygon class="st23" points="160.64,584.74 141.53,607.28 141.2,456.23 160.05,477.97 			"/>
			<polygon class="st11" points="162.92,508.69 141.41,499.03 141.2,456.68 162.73,480.8 			"/>
		</g>
	</g>
	
		<linearGradient id="SVGID_22_" gradientUnits="userSpaceOnUse" x1="70.6365" y1="537.5475" x2="114.7541" y2="537.5475" gradientTransform="matrix(0.9951 -0.0992 0.0992 0.9951 -32.9816 18.5443)">
		<stop  offset="5.618000e-03" style="stop-color:#FBC926"/>
		<stop  offset="0.2009" style="stop-color:#C3922E"/>
		<stop  offset="0.7333" style="stop-color:#E2C675"/>
		<stop  offset="0.8708" style="stop-color:#EED688"/>
		<stop  offset="1" style="stop-color:#FFFBCC"/>
	</linearGradient>
	<path class="st24" d="M131.36,510.45l-4.5,15.01c0,0-4.46-0.73-5.85-0.7c-1.39,0.03-3.7-0.6-7.66,0.55
		c-2.74,0.79-2.91,4.16-2.76,6.15c0.08,1.06,0.46,2.06,1.12,2.9c1.6,2.04,3.76,2.84,5.12,3.35c2.21,0.82,5.23,2.36,8.63,5.49
		c0.53,0.67,1.19,1.58,1.87,2.72c0.43,0.73,1.54,2.65,2.41,5.29c0.65,1.98,2.34,7.19,0.87,13.46c-0.77,3.26-1.6,6.54-8.34,10.85
		s-13.06,2.79-13.06,2.79s-5.96-0.69-9.6-2.79c-3.64-2.1-6.57-4.67-6.57-4.67l0.33-1.03l3.07-10.05c0,0,3.68,2.52,7.85,3.5
		c4.17,0.98,7.22-0.61,7.22-0.61c0.43-0.27,0.92-0.67,1.34-1.25c0.27-0.37,0.72-0.98,0.81-1.86c0.04-0.41-0.02-0.77-0.15-1.49
		c-0.02-0.13-0.13-0.7-0.37-1.44c-0.15-0.46-0.23-0.71-0.4-1.02c-0.21-0.4-0.46-0.71-0.81-1.06c-0.91-0.93-2.04-1.74-2.51-2.06
		c0,0-4.47-2.98-6.36-4.72c0,0-2.94-2.6-4.55-5.87s-2.07-11.15-2.07-11.15s-0.51-4.82,1.76-9.51c2.17-4.47,5.11-7.26,9.4-9.29
		c1.69-0.8,2.75-1.27,3.88-1.58c2.36-0.65,4.57-0.95,8.29-0.91C122.72,509.49,126.67,509.71,131.36,510.45z"/>
</g>
</svg>
