<?xml version="1.0" encoding="utf-8"?>
<!-- Generator: Adobe Illustrator 25.2.3, SVG Export Plug-In . SVG Version: 6.00 Build 0)  -->
<svg version="1.1" id="Layer_1" xmlns="http://www.w3.org/2000/svg" xmlns:xlink="http://www.w3.org/1999/xlink" x="0px" y="0px"
	 viewBox="0 0 530.76 160.51" style="enable-background:new 0 0 530.76 160.51;" xml:space="preserve">
<style type="text/css">
	.st0{fill:none;stroke:#000000;stroke-width:4;stroke-linecap:round;stroke-linejoin:round;stroke-miterlimit:10;}
	.st1{fill:none;stroke:url(#SVGID_1_);stroke-width:4;stroke-miterlimit:10;}
	.st2{fill:none;stroke:url(#SVGID_2_);stroke-width:4;stroke-linecap:round;stroke-miterlimit:10;}
	.st3{fill:none;stroke:url(#SVGID_3_);stroke-width:4;stroke-linecap:round;stroke-linejoin:round;stroke-miterlimit:10;}
	.st4{fill:none;stroke:url(#SVGID_4_);stroke-width:4;stroke-linecap:round;stroke-linejoin:round;stroke-miterlimit:10;}
	.st5{fill:none;stroke:url(#SVGID_5_);stroke-width:4;stroke-linecap:round;stroke-linejoin:round;stroke-miterlimit:10;}
	.st6{fill:none;stroke:url(#SVGID_6_);stroke-width:4;stroke-miterlimit:10;}
	.st7{fill:none;stroke:url(#SVGID_7_);stroke-width:4;stroke-miterlimit:10;}
	.st8{fill:none;stroke:url(#SVGID_8_);stroke-width:4;stroke-linecap:round;stroke-linejoin:round;stroke-miterlimit:10;}
	.st9{fill:none;stroke:url(#SVGID_9_);stroke-width:4;stroke-miterlimit:10;}
	.st10{fill:none;stroke:url(#SVGID_10_);stroke-width:4;stroke-linecap:round;stroke-linejoin:round;stroke-miterlimit:10;}
	.st11{fill:none;}
	.st12{fill:url(#SVGID_11_);}
	.st13{fill:#6D6E71;}
	.st14{font-family:'MyriadPro-Regular';}
	.st15{font-size:130.244px;}
	.st16{font-size:31.2251px;}
	.st17{fill:none;stroke:url(#SVGID_12_);stroke-width:4;stroke-miterlimit:10;}
	.st18{fill:none;stroke:url(#SVGID_13_);stroke-width:4;stroke-linecap:round;stroke-miterlimit:10;}
	.st19{fill:none;stroke:url(#SVGID_14_);stroke-width:4;stroke-linecap:round;stroke-linejoin:round;stroke-miterlimit:10;}
	.st20{fill:none;stroke:url(#SVGID_15_);stroke-width:4;stroke-linecap:round;stroke-linejoin:round;stroke-miterlimit:10;}
	.st21{fill:none;stroke:url(#SVGID_16_);stroke-width:4;stroke-linecap:round;stroke-linejoin:round;stroke-miterlimit:10;}
	.st22{fill:none;stroke:url(#SVGID_17_);stroke-width:4;stroke-miterlimit:10;}
	.st23{fill:none;stroke:url(#SVGID_18_);stroke-width:4;stroke-miterlimit:10;}
	.st24{fill:none;stroke:url(#SVGID_19_);stroke-width:4;stroke-linecap:round;stroke-linejoin:round;stroke-miterlimit:10;}
	.st25{fill:none;stroke:url(#SVGID_20_);stroke-width:4;stroke-miterlimit:10;}
	.st26{fill:none;stroke:url(#SVGID_21_);stroke-width:4;stroke-linecap:round;stroke-linejoin:round;stroke-miterlimit:10;}
	.st27{fill:url(#SVGID_22_);}
</style>
<g>
	<g>
		<path class="st0" d="M-8.02,22.68"/>
		<path class="st0" d="M-8.02,19.82"/>
		
			<linearGradient id="SVGID_1_" gradientUnits="userSpaceOnUse" x1="61.5346" y1="33.0523" x2="77.4869" y2="33.0523" gradientTransform="matrix(1.0571 0.0444 0.0488 1.038 -20.9627 -16.3185)">
			<stop  offset="0.095" style="stop-color:#FBC926"/>
			<stop  offset="0.3998" style="stop-color:#C5952D"/>
			<stop  offset="0.6516" style="stop-color:#C3922E"/>
			<stop  offset="0.9368" style="stop-color:#E2C675"/>
			<stop  offset="0.9841" style="stop-color:#E9D081"/>
			<stop  offset="1" style="stop-color:#EED688"/>
		</linearGradient>
		<line class="st1" x1="46.77" y1="15.08" x2="61.49" y2="27.07"/>
		
			<linearGradient id="SVGID_2_" gradientUnits="userSpaceOnUse" x1="45.531" y1="37.6322" x2="62.6472" y2="37.6322" gradientTransform="matrix(0.9878 0.0364 5.104593e-03 0.9642 1.1036 0.5204)">
			<stop  offset="0.095" style="stop-color:#FBC926"/>
			<stop  offset="0.3998" style="stop-color:#C5952D"/>
			<stop  offset="0.6516" style="stop-color:#C3922E"/>
			<stop  offset="0.9368" style="stop-color:#E2C675"/>
			<stop  offset="0.9841" style="stop-color:#E9D081"/>
			<stop  offset="1" style="stop-color:#EED688"/>
		</linearGradient>
		<line class="st2" x1="48.31" y1="49.61" x2="61.14" y2="27.94"/>
		<g>
			<linearGradient id="SVGID_3_" gradientUnits="userSpaceOnUse" x1="28.9931" y1="28.8217" x2="42.5491" y2="28.8217">
				<stop  offset="0.095" style="stop-color:#FBC926"/>
				<stop  offset="0.3998" style="stop-color:#C5952D"/>
				<stop  offset="0.6516" style="stop-color:#C3922E"/>
				<stop  offset="0.9368" style="stop-color:#E2C675"/>
				<stop  offset="0.9841" style="stop-color:#E9D081"/>
				<stop  offset="1" style="stop-color:#EED688"/>
			</linearGradient>
			<line class="st3" x1="30.99" y1="24.56" x2="40.55" y2="33.09"/>
			<linearGradient id="SVGID_4_" gradientUnits="userSpaceOnUse" x1="28.8988" y1="42.2282" x2="42.462" y2="42.2282">
				<stop  offset="0.095" style="stop-color:#FBC926"/>
				<stop  offset="0.3998" style="stop-color:#C5952D"/>
				<stop  offset="0.6516" style="stop-color:#C3922E"/>
				<stop  offset="0.9368" style="stop-color:#E2C675"/>
				<stop  offset="0.9841" style="stop-color:#E9D081"/>
				<stop  offset="1" style="stop-color:#EED688"/>
			</linearGradient>
			<line class="st4" x1="30.9" y1="51.33" x2="40.46" y2="33.13"/>
		</g>
		
			<linearGradient id="SVGID_5_" gradientUnits="userSpaceOnUse" x1="9.9288" y1="33.7189" x2="19.9062" y2="33.7189" gradientTransform="matrix(0.9879 -0.0142 -0.0132 0.9845 3.5525 4.1796)">
			<stop  offset="0.095" style="stop-color:#FBC926"/>
			<stop  offset="0.3998" style="stop-color:#C5952D"/>
			<stop  offset="0.6516" style="stop-color:#C3922E"/>
			<stop  offset="0.9368" style="stop-color:#E2C675"/>
			<stop  offset="0.9841" style="stop-color:#E9D081"/>
			<stop  offset="1" style="stop-color:#EED688"/>
		</linearGradient>
		<line class="st5" x1="14.93" y1="34.23" x2="20.76" y2="40.09"/>
		<linearGradient id="SVGID_6_" gradientUnits="userSpaceOnUse" x1="12.4446" y1="47.6284" x2="22.5949" y2="47.6284">
			<stop  offset="0.095" style="stop-color:#FBC926"/>
			<stop  offset="0.3998" style="stop-color:#C5952D"/>
			<stop  offset="0.6516" style="stop-color:#C3922E"/>
			<stop  offset="0.9368" style="stop-color:#E2C675"/>
			<stop  offset="0.9841" style="stop-color:#E9D081"/>
			<stop  offset="1" style="stop-color:#EED688"/>
		</linearGradient>
		<line class="st6" x1="14.28" y1="55.17" x2="20.76" y2="40.09"/>
		<linearGradient id="SVGID_7_" gradientUnits="userSpaceOnUse" x1="2.8149" y1="80.5752" x2="68.2997" y2="80.5752">
			<stop  offset="0.095" style="stop-color:#FBC926"/>
			<stop  offset="0.3998" style="stop-color:#C5952D"/>
			<stop  offset="0.6516" style="stop-color:#C3922E"/>
			<stop  offset="0.9368" style="stop-color:#E2C675"/>
			<stop  offset="0.9841" style="stop-color:#E9D081"/>
			<stop  offset="1" style="stop-color:#EED688"/>
		</linearGradient>
		<path class="st7" d="M64.42,155.04L4.81,120V38.86L64.47,6.1c0.83-0.45,1.83,0.15,1.83,1.08l-0.15,146.87
			C66.15,154.94,65.18,155.49,64.42,155.04z"/>
		<linearGradient id="SVGID_8_" gradientUnits="userSpaceOnUse" x1="2.5221" y1="80.516" x2="68.1856" y2="80.516">
			<stop  offset="0.095" style="stop-color:#FBC926"/>
			<stop  offset="0.3998" style="stop-color:#C5952D"/>
			<stop  offset="0.6516" style="stop-color:#C3922E"/>
			<stop  offset="0.9368" style="stop-color:#E2C675"/>
			<stop  offset="0.9841" style="stop-color:#E9D081"/>
			<stop  offset="1" style="stop-color:#EED688"/>
		</linearGradient>
		<path class="st8" d="M66.19,156.33L5.33,120.81c-0.5-0.29-0.8-0.82-0.8-1.4V38.74c0-0.6,0.33-1.15,0.86-1.43L66.19,4.7V156.33z"/>
		<linearGradient id="SVGID_9_" gradientUnits="userSpaceOnUse" x1="5.1515" y1="51.8859" x2="66.4603" y2="51.8859">
			<stop  offset="0.095" style="stop-color:#FBC926"/>
			<stop  offset="0.3998" style="stop-color:#C5952D"/>
			<stop  offset="0.6516" style="stop-color:#C3922E"/>
			<stop  offset="0.9368" style="stop-color:#E2C675"/>
			<stop  offset="0.9841" style="stop-color:#E9D081"/>
			<stop  offset="1" style="stop-color:#EED688"/>
		</linearGradient>
		<line class="st9" x1="5.45" y1="56.51" x2="66.16" y2="47.26"/>
		<g>
			<linearGradient id="SVGID_10_" gradientUnits="userSpaceOnUse" x1="64.0181" y1="80.2752" x2="87.4657" y2="80.2752">
				<stop  offset="0.1491" style="stop-color:#C0A02B"/>
				<stop  offset="0.6516" style="stop-color:#C3922E"/>
				<stop  offset="0.9368" style="stop-color:#E2C675"/>
				<stop  offset="0.9841" style="stop-color:#E9D081"/>
				<stop  offset="1" style="stop-color:#FBC926"/>
				<stop  offset="1" style="stop-color:#EED688"/>
			</linearGradient>
			<polygon class="st10" points="85.47,133.26 66.36,155.8 66.02,4.75 84.87,26.49 			"/>
			<polygon class="st11" points="87.74,57.21 66.23,47.55 66.02,5.21 87.55,29.32 			"/>
		</g>
	</g>
	
		<linearGradient id="SVGID_11_" gradientUnits="userSpaceOnUse" x1="40.5925" y1="80.8403" x2="84.7101" y2="80.8403" gradientTransform="matrix(0.9951 -0.0992 0.0992 0.9951 -32.9816 18.5443)">
		<stop  offset="5.618000e-03" style="stop-color:#FBC926"/>
		<stop  offset="0.2009" style="stop-color:#C3922E"/>
		<stop  offset="0.7333" style="stop-color:#E2C675"/>
		<stop  offset="0.8708" style="stop-color:#EED688"/>
		<stop  offset="1" style="stop-color:#FFFBCC"/>
	</linearGradient>
	<path class="st12" d="M56.18,58.97l-4.5,15.01c0,0-4.46-0.73-5.85-0.7c-1.39,0.03-3.7-0.6-7.66,0.55
		c-2.74,0.79-2.91,4.16-2.76,6.15c0.08,1.06,0.46,2.06,1.12,2.9c1.6,2.04,3.76,2.84,5.12,3.35c2.21,0.82,5.23,2.36,8.63,5.49
		c0.53,0.67,1.19,1.58,1.87,2.72c0.43,0.73,1.54,2.65,2.41,5.29c0.65,1.98,2.34,7.19,0.87,13.46c-0.77,3.26-1.6,6.54-8.34,10.85
		c-6.75,4.31-13.06,2.79-13.06,2.79s-5.96-0.69-9.6-2.79c-3.64-2.1-6.57-4.67-6.57-4.67l0.33-1.03l3.07-10.05
		c0,0,3.68,2.52,7.85,3.5c4.17,0.98,7.22-0.61,7.22-0.61c0.43-0.27,0.92-0.67,1.34-1.25c0.27-0.37,0.72-0.98,0.81-1.86
		c0.04-0.41-0.02-0.77-0.15-1.49c-0.02-0.13-0.13-0.7-0.37-1.44c-0.15-0.46-0.23-0.71-0.4-1.02c-0.21-0.4-0.46-0.71-0.81-1.06
		c-0.91-0.93-2.04-1.74-2.51-2.06c0,0-4.47-2.98-6.36-4.72c0,0-2.94-2.6-4.55-5.87c-1.61-3.27-2.07-11.15-2.07-11.15
		s-0.51-4.82,1.76-9.51c2.17-4.47,5.11-7.26,9.4-9.29c1.69-0.8,2.75-1.27,3.88-1.58c2.36-0.65,4.57-0.95,8.29-0.91
		C47.54,58.01,51.49,58.23,56.18,58.97z"/>
</g>
<text transform="matrix(0.8975 0.0791 -0.0897 0.9961 90.1071 123.9764)"><tspan x="0" y="0" class="st13 st14 st15">s</tspan><tspan x="50.68" y="-4.81" class="st13 st14 st15">h</tspan><tspan x="121.99" y="-10.4" class="st13 st14 st15">o</tspan><tspan x="192.52" y="-16.07" class="st13 st14 st15">p</tspan><tspan x="265.63" y="-21.83" class="st13 st14 st15">p</tspan><tspan x="338.92" y="-25.89" class="st13 st14 st15">i</tspan><tspan x="368.6" y="-29.6" class="st13 st14 st15">e</tspan><tspan x="432.98" y="-34.14" class="st13 st14 st15">s</tspan></text>
<text transform="matrix(1 0 0 1 90.5529 52.8118)" class="st13 st14 st16"> The</text>
<g>
	<g>
		<path class="st0" d="M67.16,474.16"/>
		<path class="st0" d="M67.16,471.3"/>
		
			<linearGradient id="SVGID_12_" gradientUnits="userSpaceOnUse" x1="112.6809" y1="465.7977" x2="128.6332" y2="465.7977" gradientTransform="matrix(1.0571 0.0444 0.0488 1.038 -20.9627 -16.3185)">
			<stop  offset="0.095" style="stop-color:#FBC926"/>
			<stop  offset="0.3998" style="stop-color:#C5952D"/>
			<stop  offset="0.6516" style="stop-color:#C3922E"/>
			<stop  offset="0.9368" style="stop-color:#E2C675"/>
			<stop  offset="0.9841" style="stop-color:#E9D081"/>
			<stop  offset="1" style="stop-color:#EED688"/>
		</linearGradient>
		<line class="st17" x1="121.95" y1="466.56" x2="136.67" y2="478.55"/>
		
			<linearGradient id="SVGID_13_" gradientUnits="userSpaceOnUse" x1="119.2332" y1="503.0891" x2="136.3495" y2="503.0891" gradientTransform="matrix(0.9878 0.0364 5.104593e-03 0.9642 1.1036 0.5204)">
			<stop  offset="0.095" style="stop-color:#FBC926"/>
			<stop  offset="0.3998" style="stop-color:#C5952D"/>
			<stop  offset="0.6516" style="stop-color:#C3922E"/>
			<stop  offset="0.9368" style="stop-color:#E2C675"/>
			<stop  offset="0.9841" style="stop-color:#E9D081"/>
			<stop  offset="1" style="stop-color:#EED688"/>
		</linearGradient>
		<line class="st18" x1="123.48" y1="501.08" x2="136.32" y2="479.42"/>
		<g>
			<linearGradient id="SVGID_14_" gradientUnits="userSpaceOnUse" x1="104.172" y1="480.2995" x2="117.728" y2="480.2995">
				<stop  offset="0.095" style="stop-color:#FBC926"/>
				<stop  offset="0.3998" style="stop-color:#C5952D"/>
				<stop  offset="0.6516" style="stop-color:#C3922E"/>
				<stop  offset="0.9368" style="stop-color:#E2C675"/>
				<stop  offset="0.9841" style="stop-color:#E9D081"/>
				<stop  offset="1" style="stop-color:#EED688"/>
			</linearGradient>
			<line class="st19" x1="106.17" y1="476.03" x2="115.73" y2="484.57"/>
			<linearGradient id="SVGID_15_" gradientUnits="userSpaceOnUse" x1="104.0777" y1="493.706" x2="117.6409" y2="493.706">
				<stop  offset="0.095" style="stop-color:#FBC926"/>
				<stop  offset="0.3998" style="stop-color:#C5952D"/>
				<stop  offset="0.6516" style="stop-color:#C3922E"/>
				<stop  offset="0.9368" style="stop-color:#E2C675"/>
				<stop  offset="0.9841" style="stop-color:#E9D081"/>
				<stop  offset="1" style="stop-color:#EED688"/>
			</linearGradient>
			<line class="st20" x1="106.08" y1="502.81" x2="115.64" y2="484.6"/>
		</g>
		
			<linearGradient id="SVGID_16_" gradientUnits="userSpaceOnUse" x1="92.1672" y1="493.5057" x2="102.1445" y2="493.5057" gradientTransform="matrix(0.9879 -0.0142 -0.0132 0.9845 3.5525 4.1796)">
			<stop  offset="0.095" style="stop-color:#FBC926"/>
			<stop  offset="0.3998" style="stop-color:#C5952D"/>
			<stop  offset="0.6516" style="stop-color:#C3922E"/>
			<stop  offset="0.9368" style="stop-color:#E2C675"/>
			<stop  offset="0.9841" style="stop-color:#E9D081"/>
			<stop  offset="1" style="stop-color:#EED688"/>
		</linearGradient>
		<line class="st21" x1="90.11" y1="485.71" x2="95.94" y2="491.57"/>
		<linearGradient id="SVGID_17_" gradientUnits="userSpaceOnUse" x1="87.6235" y1="499.1062" x2="97.7738" y2="499.1062">
			<stop  offset="0.095" style="stop-color:#FBC926"/>
			<stop  offset="0.3998" style="stop-color:#C5952D"/>
			<stop  offset="0.6516" style="stop-color:#C3922E"/>
			<stop  offset="0.9368" style="stop-color:#E2C675"/>
			<stop  offset="0.9841" style="stop-color:#E9D081"/>
			<stop  offset="1" style="stop-color:#EED688"/>
		</linearGradient>
		<line class="st22" x1="89.46" y1="506.64" x2="95.94" y2="491.57"/>
		<linearGradient id="SVGID_18_" gradientUnits="userSpaceOnUse" x1="77.9938" y1="532.053" x2="143.4786" y2="532.053">
			<stop  offset="0.095" style="stop-color:#FBC926"/>
			<stop  offset="0.3998" style="stop-color:#C5952D"/>
			<stop  offset="0.6516" style="stop-color:#C3922E"/>
			<stop  offset="0.9368" style="stop-color:#E2C675"/>
			<stop  offset="0.9841" style="stop-color:#E9D081"/>
			<stop  offset="1" style="stop-color:#EED688"/>
		</linearGradient>
		<path class="st23" d="M139.6,606.52l-59.6-35.04v-81.14l59.65-32.76c0.83-0.45,1.83,0.15,1.83,1.08l-0.15,146.87
			C141.33,606.42,140.36,606.97,139.6,606.52z"/>
		<linearGradient id="SVGID_19_" gradientUnits="userSpaceOnUse" x1="77.701" y1="531.9938" x2="143.3645" y2="531.9938">
			<stop  offset="0.095" style="stop-color:#FBC926"/>
			<stop  offset="0.3998" style="stop-color:#C5952D"/>
			<stop  offset="0.6516" style="stop-color:#C3922E"/>
			<stop  offset="0.9368" style="stop-color:#E2C675"/>
			<stop  offset="0.9841" style="stop-color:#E9D081"/>
			<stop  offset="1" style="stop-color:#EED688"/>
		</linearGradient>
		<path class="st24" d="M141.36,607.81l-60.86-35.52c-0.5-0.29-0.8-0.82-0.8-1.4v-80.67c0-0.6,0.33-1.15,0.86-1.43l60.81-32.61
			V607.81z"/>
		<linearGradient id="SVGID_20_" gradientUnits="userSpaceOnUse" x1="80.3304" y1="503.3637" x2="141.6391" y2="503.3637">
			<stop  offset="0.095" style="stop-color:#FBC926"/>
			<stop  offset="0.3998" style="stop-color:#C5952D"/>
			<stop  offset="0.6516" style="stop-color:#C3922E"/>
			<stop  offset="0.9368" style="stop-color:#E2C675"/>
			<stop  offset="0.9841" style="stop-color:#E9D081"/>
			<stop  offset="1" style="stop-color:#EED688"/>
		</linearGradient>
		<line class="st25" x1="80.63" y1="507.99" x2="141.34" y2="498.74"/>
		<g>
			<linearGradient id="SVGID_21_" gradientUnits="userSpaceOnUse" x1="139.197" y1="531.753" x2="162.6446" y2="531.753">
				<stop  offset="0.1491" style="stop-color:#C0A02B"/>
				<stop  offset="0.6516" style="stop-color:#C3922E"/>
				<stop  offset="0.9368" style="stop-color:#E2C675"/>
				<stop  offset="0.9841" style="stop-color:#E9D081"/>
				<stop  offset="1" style="stop-color:#FBC926"/>
				<stop  offset="1" style="stop-color:#EED688"/>
			</linearGradient>
			<polygon class="st26" points="160.64,584.74 141.53,607.28 141.2,456.23 160.05,477.97 			"/>
			<polygon class="st11" points="162.92,508.69 141.41,499.03 141.2,456.68 162.73,480.8 			"/>
		</g>
	</g>
	
		<linearGradient id="SVGID_22_" gradientUnits="userSpaceOnUse" x1="70.6365" y1="537.5475" x2="114.7541" y2="537.5475" gradientTransform="matrix(0.9951 -0.0992 0.0992 0.9951 -32.9816 18.5443)">
		<stop  offset="5.618000e-03" style="stop-color:#FBC926"/>
		<stop  offset="0.2009" style="stop-color:#C3922E"/>
		<stop  offset="0.7333" style="stop-color:#E2C675"/>
		<stop  offset="0.8708" style="stop-color:#EED688"/>
		<stop  offset="1" style="stop-color:#FFFBCC"/>
	</linearGradient>
	<path class="st27" d="M131.36,510.45l-4.5,15.01c0,0-4.46-0.73-5.85-0.7c-1.39,0.03-3.7-0.6-7.66,0.55
		c-2.74,0.79-2.91,4.16-2.76,6.15c0.08,1.06,0.46,2.06,1.12,2.9c1.6,2.04,3.76,2.84,5.12,3.35c2.21,0.82,5.23,2.36,8.63,5.49
		c0.53,0.67,1.19,1.58,1.87,2.72c0.43,0.73,1.54,2.65,2.41,5.29c0.65,1.98,2.34,7.19,0.87,13.46c-0.77,3.26-1.6,6.54-8.34,10.85
		s-13.06,2.79-13.06,2.79s-5.96-0.69-9.6-2.79c-3.64-2.1-6.57-4.67-6.57-4.67l0.33-1.03l3.07-10.05c0,0,3.68,2.52,7.85,3.5
		c4.17,0.98,7.22-0.61,7.22-0.61c0.43-0.27,0.92-0.67,1.34-1.25c0.27-0.37,0.72-0.98,0.81-1.86c0.04-0.41-0.02-0.77-0.15-1.49
		c-0.02-0.13-0.13-0.7-0.37-1.44c-0.15-0.46-0.23-0.71-0.4-1.02c-0.21-0.4-0.46-0.71-0.81-1.06c-0.91-0.93-2.04-1.74-2.51-2.06
		c0,0-4.47-2.98-6.36-4.72c0,0-2.94-2.6-4.55-5.87s-2.07-11.15-2.07-11.15s-0.51-4.82,1.76-9.51c2.17-4.47,5.11-7.26,9.4-9.29
		c1.69-0.8,2.75-1.27,3.88-1.58c2.36-0.65,4.57-0.95,8.29-0.91C122.72,509.49,126.67,509.71,131.36,510.45z"/>
</g>
</svg>
