<?xml version="1.0" encoding="utf-8"?>
<!-- Generator: Adobe Illustrator 25.2.3, SVG Export Plug-In . SVG Version: 6.00 Build 0)  -->
<svg version="1.1" id="Layer_1" xmlns="http://www.w3.org/2000/svg" xmlns:xlink="http://www.w3.org/1999/xlink" x="0px" y="0px"
	 viewBox="0 0 612 792" style="enable-background:new 0 0 612 792;" xml:space="preserve">
<style type="text/css">
	.st0{fill:none;stroke:#000000;stroke-width:4;stroke-linecap:round;stroke-linejoin:round;stroke-miterlimit:10;}
	.st1{fill:none;stroke:url(#SVGID_1_);stroke-width:4;stroke-miterlimit:10;}
	.st2{fill:none;stroke:url(#SVGID_2_);stroke-width:4;stroke-linecap:round;stroke-miterlimit:10;}
	.st3{fill:none;stroke:url(#SVGID_3_);stroke-width:4;stroke-linecap:round;stroke-linejoin:round;stroke-miterlimit:10;}
	.st4{fill:none;stroke:url(#SVGID_4_);stroke-width:4;stroke-linecap:round;stroke-linejoin:round;stroke-miterlimit:10;}
	.st5{fill:none;stroke:url(#SVGID_5_);stroke-width:4;stroke-linecap:round;stroke-linejoin:round;stroke-miterlimit:10;}
	.st6{fill:none;stroke:url(#SVGID_6_);stroke-width:4;stroke-miterlimit:10;}
	.st7{fill:none;stroke:url(#SVGID_7_);stroke-width:4;stroke-miterlimit:10;}
	.st8{fill:none;stroke:url(#SVGID_8_);stroke-width:4;stroke-linecap:round;stroke-linejoin:round;stroke-miterlimit:10;}
	.st9{fill:none;stroke:url(#SVGID_9_);stroke-width:4;stroke-miterlimit:10;}
	.st10{fill:none;stroke:url(#SVGID_10_);stroke-width:4;stroke-linecap:round;stroke-linejoin:round;stroke-miterlimit:10;}
	.st11{fill:none;}
	.st12{fill:url(#SVGID_11_);}
	.st13{fill:#6D6E71;}
	.st14{font-family:'MyriadPro-Regular';}
	.st15{font-size:130.244px;}
	.st16{font-size:31.2251px;}
</style>
<g>
	<g>
		<g>
			<path class="st0" d="M41.22,289.81"/>
			<path class="st0" d="M41.22,286.95"/>
			
				<linearGradient id="SVGID_1_" gradientUnits="userSpaceOnUse" x1="101.3308" y1="292.8128" x2="117.2832" y2="292.8128" gradientTransform="matrix(1.0571 0.0444 0.0488 1.038 -26.4648 -20.6045)">
				<stop  offset="0.095" style="stop-color:#FBC926"/>
				<stop  offset="0.3998" style="stop-color:#C5952D"/>
				<stop  offset="0.6516" style="stop-color:#C3922E"/>
				<stop  offset="0.9368" style="stop-color:#E2C675"/>
				<stop  offset="0.9841" style="stop-color:#E9D081"/>
				<stop  offset="1" style="stop-color:#EED688"/>
			</linearGradient>
			<line class="st1" x1="96.01" y1="282.21" x2="110.73" y2="294.2"/>
			
				<linearGradient id="SVGID_2_" gradientUnits="userSpaceOnUse" x1="93.7962" y1="311.9616" x2="110.9124" y2="311.9616" gradientTransform="matrix(0.9878 0.0364 5.104593e-03 0.9642 1.2662 1.377)">
				<stop  offset="0.095" style="stop-color:#FBC926"/>
				<stop  offset="0.3998" style="stop-color:#C5952D"/>
				<stop  offset="0.6516" style="stop-color:#C3922E"/>
				<stop  offset="0.9368" style="stop-color:#E2C675"/>
				<stop  offset="0.9841" style="stop-color:#E9D081"/>
				<stop  offset="1" style="stop-color:#EED688"/>
			</linearGradient>
			<line class="st2" x1="97.54" y1="316.73" x2="110.38" y2="295.07"/>
			<g>
				<linearGradient id="SVGID_3_" gradientUnits="userSpaceOnUse" x1="78.2323" y1="295.9445" x2="91.7884" y2="295.9445">
					<stop  offset="0.095" style="stop-color:#FBC926"/>
					<stop  offset="0.3998" style="stop-color:#C5952D"/>
					<stop  offset="0.6516" style="stop-color:#C3922E"/>
					<stop  offset="0.9368" style="stop-color:#E2C675"/>
					<stop  offset="0.9841" style="stop-color:#E9D081"/>
					<stop  offset="1" style="stop-color:#EED688"/>
				</linearGradient>
				<line class="st3" x1="80.23" y1="291.68" x2="89.79" y2="300.21"/>
				<linearGradient id="SVGID_4_" gradientUnits="userSpaceOnUse" x1="78.138" y1="309.351" x2="91.7012" y2="309.351">
					<stop  offset="0.095" style="stop-color:#FBC926"/>
					<stop  offset="0.3998" style="stop-color:#C5952D"/>
					<stop  offset="0.6516" style="stop-color:#C3922E"/>
					<stop  offset="0.9368" style="stop-color:#E2C675"/>
					<stop  offset="0.9841" style="stop-color:#E9D081"/>
					<stop  offset="1" style="stop-color:#EED688"/>
				</linearGradient>
				<line class="st4" x1="80.14" y1="318.45" x2="89.7" y2="300.25"/>
			</g>
			
				<linearGradient id="SVGID_5_" gradientUnits="userSpaceOnUse" x1="62.0132" y1="304.1909" x2="71.9905" y2="304.1909" gradientTransform="matrix(0.9879 -0.0142 -0.0132 0.9845 4.9051 5.7711)">
				<stop  offset="0.095" style="stop-color:#FBC926"/>
				<stop  offset="0.3998" style="stop-color:#C5952D"/>
				<stop  offset="0.6516" style="stop-color:#C3922E"/>
				<stop  offset="0.9368" style="stop-color:#E2C675"/>
				<stop  offset="0.9841" style="stop-color:#E9D081"/>
				<stop  offset="1" style="stop-color:#EED688"/>
			</linearGradient>
			<line class="st5" x1="64.17" y1="301.36" x2="70" y2="307.21"/>
			<linearGradient id="SVGID_6_" gradientUnits="userSpaceOnUse" x1="61.6838" y1="314.7512" x2="71.8341" y2="314.7512">
				<stop  offset="0.095" style="stop-color:#FBC926"/>
				<stop  offset="0.3998" style="stop-color:#C5952D"/>
				<stop  offset="0.6516" style="stop-color:#C3922E"/>
				<stop  offset="0.9368" style="stop-color:#E2C675"/>
				<stop  offset="0.9841" style="stop-color:#E9D081"/>
				<stop  offset="1" style="stop-color:#EED688"/>
			</linearGradient>
			<line class="st6" x1="63.52" y1="322.29" x2="70" y2="307.21"/>
			<linearGradient id="SVGID_7_" gradientUnits="userSpaceOnUse" x1="52.0542" y1="347.698" x2="117.5389" y2="347.698">
				<stop  offset="0.095" style="stop-color:#FBC926"/>
				<stop  offset="0.3998" style="stop-color:#C5952D"/>
				<stop  offset="0.6516" style="stop-color:#C3922E"/>
				<stop  offset="0.9368" style="stop-color:#E2C675"/>
				<stop  offset="0.9841" style="stop-color:#E9D081"/>
				<stop  offset="1" style="stop-color:#EED688"/>
			</linearGradient>
			<path class="st7" d="M113.66,422.16l-59.6-35.04v-81.14l59.65-32.76c0.83-0.45,1.83,0.15,1.83,1.08l-0.15,146.87
				C115.39,422.06,114.42,422.61,113.66,422.16z"/>
			<linearGradient id="SVGID_8_" gradientUnits="userSpaceOnUse" x1="51.7614" y1="347.6388" x2="117.4248" y2="347.6388">
				<stop  offset="0.095" style="stop-color:#FBC926"/>
				<stop  offset="0.3998" style="stop-color:#C5952D"/>
				<stop  offset="0.6516" style="stop-color:#C3922E"/>
				<stop  offset="0.9368" style="stop-color:#E2C675"/>
				<stop  offset="0.9841" style="stop-color:#E9D081"/>
				<stop  offset="1" style="stop-color:#EED688"/>
			</linearGradient>
			<path class="st8" d="M115.42,423.45l-60.86-35.52c-0.5-0.29-0.8-0.82-0.8-1.4v-80.67c0-0.6,0.33-1.15,0.86-1.43l60.81-32.61
				V423.45z"/>
			<linearGradient id="SVGID_9_" gradientUnits="userSpaceOnUse" x1="54.3907" y1="319.0087" x2="115.6995" y2="319.0087">
				<stop  offset="0.095" style="stop-color:#FBC926"/>
				<stop  offset="0.3998" style="stop-color:#C5952D"/>
				<stop  offset="0.6516" style="stop-color:#C3922E"/>
				<stop  offset="0.9368" style="stop-color:#E2C675"/>
				<stop  offset="0.9841" style="stop-color:#E9D081"/>
				<stop  offset="1" style="stop-color:#EED688"/>
			</linearGradient>
			<line class="st9" x1="54.69" y1="323.63" x2="115.4" y2="314.38"/>
			<g>
				<linearGradient id="SVGID_10_" gradientUnits="userSpaceOnUse" x1="113.2574" y1="347.398" x2="136.7049" y2="347.398">
					<stop  offset="0.1491" style="stop-color:#C0A02B"/>
					<stop  offset="0.6516" style="stop-color:#C3922E"/>
					<stop  offset="0.9368" style="stop-color:#E2C675"/>
					<stop  offset="0.9841" style="stop-color:#E9D081"/>
					<stop  offset="1" style="stop-color:#FBC926"/>
					<stop  offset="1" style="stop-color:#EED688"/>
				</linearGradient>
				<polygon class="st10" points="134.7,400.38 115.6,422.92 115.26,271.87 134.11,293.61 				"/>
				<polygon class="st11" points="136.98,324.34 115.47,314.68 115.26,272.33 136.79,296.44 				"/>
			</g>
		</g>
		
			<linearGradient id="SVGID_11_" gradientUnits="userSpaceOnUse" x1="69.7726" y1="347.8228" x2="113.8902" y2="347.8228" gradientTransform="matrix(0.9951 -0.0992 0.0992 0.9951 -39.2502 22.8935)">
			<stop  offset="5.618000e-03" style="stop-color:#FBC926"/>
			<stop  offset="0.2009" style="stop-color:#C3922E"/>
			<stop  offset="0.7333" style="stop-color:#E2C675"/>
			<stop  offset="0.8708" style="stop-color:#EED688"/>
			<stop  offset="1" style="stop-color:#FFFBCC"/>
		</linearGradient>
		<path class="st12" d="M105.42,326.1l-4.5,15.01c0,0-4.46-0.73-5.85-0.7c-1.39,0.03-3.7-0.6-7.66,0.55
			c-2.74,0.79-2.91,4.16-2.76,6.15c0.08,1.06,0.46,2.06,1.12,2.9c1.6,2.04,3.76,2.84,5.12,3.35c2.21,0.82,5.23,2.36,8.63,5.49
			c0.53,0.67,1.19,1.58,1.87,2.72c0.43,0.73,1.54,2.65,2.41,5.29c0.65,1.98,2.34,7.19,0.87,13.46c-0.77,3.26-1.6,6.54-8.34,10.85
			s-13.06,2.79-13.06,2.79s-5.96-0.69-9.6-2.79c-3.64-2.1-6.57-4.67-6.57-4.67l0.33-1.03l3.07-10.05c0,0,3.68,2.52,7.85,3.5
			c4.17,0.98,7.22-0.61,7.22-0.61c0.43-0.27,0.92-0.67,1.34-1.25c0.27-0.37,0.72-0.98,0.81-1.86c0.04-0.41-0.02-0.77-0.15-1.49
			c-0.02-0.13-0.13-0.7-0.37-1.44c-0.15-0.46-0.23-0.71-0.4-1.02c-0.21-0.4-0.46-0.71-0.81-1.06c-0.91-0.93-2.04-1.74-2.51-2.06
			c0,0-4.47-2.98-6.36-4.72c0,0-2.94-2.6-4.55-5.87s-2.07-11.15-2.07-11.15s-0.51-4.82,1.76-9.51c2.17-4.47,5.11-7.26,9.4-9.29
			c1.69-0.8,2.75-1.27,3.88-1.58c2.36-0.65,4.57-0.95,8.29-0.91C96.78,325.14,100.73,325.36,105.42,326.1z"/>
	</g>
	<text transform="matrix(0.8975 0.0791 -0.0897 0.9961 139.3145 391.0737)"><tspan x="0" y="0" class="st13 st14 st15">s</tspan><tspan x="50.68" y="-4.81" class="st13 st14 st15">h</tspan><tspan x="121.99" y="-10.4" class="st13 st14 st15">o</tspan><tspan x="192.52" y="-16.07" class="st13 st14 st15">p</tspan><tspan x="265.63" y="-21.83" class="st13 st14 st15">p</tspan><tspan x="338.92" y="-25.89" class="st13 st14 st15">i</tspan><tspan x="368.6" y="-29.6" class="st13 st14 st15">e</tspan><tspan x="432.98" y="-34.14" class="st13 st14 st15">s</tspan></text>
	<text transform="matrix(1 0 0 1 137.7905 322.937)" class="st13 st14 st16"> The</text>
</g>
</svg>
